<svg xmlns="http://www.w3.org/2000/svg" xmlns:xlink="http://www.w3.org/1999/xlink" width="250" zoomAndPan="magnify" viewBox="0 0 187.5 37.5" height="50" preserveAspectRatio="xMidYMid meet" version="1.0"><defs><g/><clipPath id="eedb0988ea"><path d="M 0.988281 0 L 186.019531 0 L 186.019531 37.007812 L 0.988281 37.007812 Z M 0.988281 0 " clip-rule="nonzero"/></clipPath><clipPath id="ad5107d07a"><path d="M 2.425781 1.714844 L 26.851562 1.714844 L 26.851562 35.023438 L 2.425781 35.023438 Z M 2.425781 1.714844 " clip-rule="nonzero"/></clipPath><clipPath id="3947a32ec8"><path d="M 33 25 L 45 25 L 45 37.007812 L 33 37.007812 Z M 33 25 " clip-rule="nonzero"/></clipPath><clipPath id="296d6f52d7"><path d="M 44 25 L 59 25 L 59 37.007812 L 44 37.007812 Z M 44 25 " clip-rule="nonzero"/></clipPath><clipPath id="78d91b3aa4"><path d="M 58 25 L 69 25 L 69 37.007812 L 58 37.007812 Z M 58 25 " clip-rule="nonzero"/></clipPath><clipPath id="cefbc4f8ed"><path d="M 68 25 L 80 25 L 80 37.007812 L 68 37.007812 Z M 68 25 " clip-rule="nonzero"/></clipPath><clipPath id="d2861b896c"><path d="M 80 25 L 92 25 L 92 37.007812 L 80 37.007812 Z M 80 25 " clip-rule="nonzero"/></clipPath><clipPath id="66b837a737"><path d="M 92 25 L 102 25 L 102 37.007812 L 92 37.007812 Z M 92 25 " clip-rule="nonzero"/></clipPath><clipPath id="c16a1e9525"><path d="M 102 25 L 116 25 L 116 37.007812 L 102 37.007812 Z M 102 25 " clip-rule="nonzero"/></clipPath><clipPath id="1618df503f"><path d="M 116 25 L 128 25 L 128 37.007812 L 116 37.007812 Z M 116 25 " clip-rule="nonzero"/></clipPath><clipPath id="336a6198b7"><path d="M 128 25 L 141 25 L 141 37.007812 L 128 37.007812 Z M 128 25 " clip-rule="nonzero"/></clipPath><clipPath id="aca18cfa86"><path d="M 140 25 L 153 25 L 153 37.007812 L 140 37.007812 Z M 140 25 " clip-rule="nonzero"/></clipPath><clipPath id="e307d5c653"><path d="M 152 25 L 167 25 L 167 37.007812 L 152 37.007812 Z M 152 25 " clip-rule="nonzero"/></clipPath><clipPath id="541c754332"><path d="M 166 25 L 178 25 L 178 37.007812 L 166 37.007812 Z M 166 25 " clip-rule="nonzero"/></clipPath></defs><g clip-path="url(#eedb0988ea)"><path fill="#ffffff" d="M 0.988281 0 L 186.019531 0 L 186.019531 37.007812 L 0.988281 37.007812 Z M 0.988281 0 " fill-opacity="1" fill-rule="nonzero"/><path fill="#ffffff" d="M 0.988281 0 L 186.019531 0 L 186.019531 37.007812 L 0.988281 37.007812 Z M 0.988281 0 " fill-opacity="1" fill-rule="nonzero"/></g><g clip-path="url(#ad5107d07a)"><path fill="#8c52ff" d="M 5 2.378906 C 3.949219 2.378906 3.09375 3.234375 3.09375 4.285156 L 3.09375 32.71875 C 3.09375 33.769531 3.949219 34.625 5 34.625 L 24.4375 34.625 C 25.488281 34.625 26.34375 33.769531 26.34375 32.71875 L 26.34375 4.285156 C 26.34375 3.234375 25.488281 2.378906 24.4375 2.378906 Z M 24.4375 35.289062 L 5 35.289062 C 3.582031 35.289062 2.429688 34.136719 2.429688 32.71875 L 2.429688 4.285156 C 2.429688 2.867188 3.582031 1.714844 5 1.714844 L 24.4375 1.714844 C 25.855469 1.714844 27.007812 2.867188 27.007812 4.285156 L 27.007812 32.71875 C 27.007812 34.136719 25.855469 35.289062 24.4375 35.289062 " fill-opacity="1" fill-rule="nonzero"/></g><path fill="#8c52ff" d="M 5.734375 12.378906 L 23.707031 12.378906 L 23.707031 4.996094 L 5.734375 4.996094 Z M 24.035156 13.039062 L 5.402344 13.039062 C 5.21875 13.039062 5.070312 12.890625 5.070312 12.710938 L 5.070312 4.664062 C 5.070312 4.480469 5.21875 4.332031 5.402344 4.332031 L 24.035156 4.332031 C 24.21875 4.332031 24.367188 4.480469 24.367188 4.664062 L 24.367188 12.710938 C 24.367188 12.890625 24.21875 13.039062 24.035156 13.039062 " fill-opacity="1" fill-rule="nonzero"/><path fill="#8c52ff" d="M 5.734375 20.027344 L 10.152344 20.027344 L 10.152344 16.257812 L 5.734375 16.257812 Z M 10.480469 20.6875 L 5.402344 20.6875 C 5.21875 20.6875 5.070312 20.542969 5.070312 20.359375 L 5.070312 15.925781 C 5.070312 15.746094 5.21875 15.597656 5.402344 15.597656 L 10.480469 15.597656 C 10.664062 15.597656 10.8125 15.746094 10.8125 15.925781 L 10.8125 20.359375 C 10.8125 20.542969 10.664062 20.6875 10.480469 20.6875 " fill-opacity="1" fill-rule="nonzero"/><path fill="#8c52ff" d="M 12.472656 20.027344 L 16.890625 20.027344 L 16.890625 16.257812 L 12.472656 16.257812 Z M 17.222656 20.6875 L 12.140625 20.6875 C 11.957031 20.6875 11.808594 20.542969 11.808594 20.359375 L 11.808594 15.925781 C 11.808594 15.746094 11.957031 15.597656 12.140625 15.597656 L 17.222656 15.597656 C 17.40625 15.597656 17.554688 15.746094 17.554688 15.925781 L 17.554688 20.359375 C 17.554688 20.542969 17.40625 20.6875 17.222656 20.6875 " fill-opacity="1" fill-rule="nonzero"/><path fill="#8c52ff" d="M 19.210938 20.027344 L 23.632812 20.027344 L 23.632812 16.257812 L 19.210938 16.257812 Z M 23.960938 20.6875 L 18.882812 20.6875 C 18.699219 20.6875 18.550781 20.542969 18.550781 20.359375 L 18.550781 15.925781 C 18.550781 15.746094 18.699219 15.597656 18.882812 15.597656 L 23.960938 15.597656 C 24.144531 15.597656 24.292969 15.746094 24.292969 15.925781 L 24.292969 20.359375 C 24.292969 20.542969 24.144531 20.6875 23.960938 20.6875 " fill-opacity="1" fill-rule="nonzero"/><path fill="#8c52ff" d="M 5.734375 26.140625 L 10.152344 26.140625 L 10.152344 22.371094 L 5.734375 22.371094 Z M 10.480469 26.804688 L 5.402344 26.804688 C 5.21875 26.804688 5.070312 26.65625 5.070312 26.472656 L 5.070312 22.042969 C 5.070312 21.859375 5.21875 21.710938 5.402344 21.710938 L 10.480469 21.710938 C 10.664062 21.710938 10.8125 21.859375 10.8125 22.042969 L 10.8125 26.472656 C 10.8125 26.65625 10.664062 26.804688 10.480469 26.804688 " fill-opacity="1" fill-rule="nonzero"/><path fill="#8c52ff" d="M 12.472656 26.140625 L 16.890625 26.140625 L 16.890625 22.371094 L 12.472656 22.371094 Z M 17.222656 26.804688 L 12.140625 26.804688 C 11.957031 26.804688 11.808594 26.65625 11.808594 26.472656 L 11.808594 22.042969 C 11.808594 21.859375 11.957031 21.710938 12.140625 21.710938 L 17.222656 21.710938 C 17.40625 21.710938 17.554688 21.859375 17.554688 22.042969 L 17.554688 26.472656 C 17.554688 26.65625 17.40625 26.804688 17.222656 26.804688 " fill-opacity="1" fill-rule="nonzero"/><path fill="#8c52ff" d="M 5.734375 32.253906 L 10.152344 32.253906 L 10.152344 28.488281 L 5.734375 28.488281 Z M 10.480469 32.917969 L 5.402344 32.917969 C 5.21875 32.917969 5.070312 32.769531 5.070312 32.585938 L 5.070312 28.15625 C 5.070312 27.972656 5.21875 27.824219 5.402344 27.824219 L 10.480469 27.824219 C 10.664062 27.824219 10.8125 27.972656 10.8125 28.15625 L 10.8125 32.585938 C 10.8125 32.769531 10.664062 32.917969 10.480469 32.917969 " fill-opacity="1" fill-rule="nonzero"/><path fill="#8c52ff" d="M 12.472656 32.253906 L 16.890625 32.253906 L 16.890625 28.488281 L 12.472656 28.488281 Z M 17.222656 32.917969 L 12.140625 32.917969 C 11.957031 32.917969 11.808594 32.769531 11.808594 32.585938 L 11.808594 28.15625 C 11.808594 27.972656 11.957031 27.824219 12.140625 27.824219 L 17.222656 27.824219 C 17.40625 27.824219 17.554688 27.972656 17.554688 28.15625 L 17.554688 32.585938 C 17.554688 32.769531 17.40625 32.917969 17.222656 32.917969 " fill-opacity="1" fill-rule="nonzero"/><path fill="#8c52ff" d="M 19.210938 32.253906 L 23.632812 32.253906 L 23.632812 22.371094 L 19.210938 22.371094 Z M 23.960938 32.917969 L 18.882812 32.917969 C 18.699219 32.917969 18.550781 32.769531 18.550781 32.585938 L 18.550781 22.042969 C 18.550781 21.859375 18.699219 21.710938 18.882812 21.710938 L 23.960938 21.710938 C 24.144531 21.710938 24.292969 21.859375 24.292969 22.042969 L 24.292969 32.585938 C 24.292969 32.769531 24.144531 32.917969 23.960938 32.917969 " fill-opacity="1" fill-rule="nonzero"/><path fill="#8c52ff" d="M 21.421875 28.882812 C 21.238281 28.882812 21.089844 28.734375 21.089844 28.550781 L 21.089844 26.074219 C 21.089844 25.894531 21.238281 25.746094 21.421875 25.746094 C 21.605469 25.746094 21.753906 25.894531 21.753906 26.074219 L 21.753906 28.550781 C 21.753906 28.734375 21.605469 28.882812 21.421875 28.882812 " fill-opacity="1" fill-rule="nonzero"/><path fill="#8c52ff" d="M 22.660156 27.644531 L 20.183594 27.644531 C 20 27.644531 19.851562 27.496094 19.851562 27.3125 C 19.851562 27.132812 20 26.984375 20.183594 26.984375 L 22.660156 26.984375 C 22.84375 26.984375 22.992188 27.132812 22.992188 27.3125 C 22.992188 27.496094 22.84375 27.644531 22.660156 27.644531 " fill-opacity="1" fill-rule="nonzero"/><g fill="#000000" fill-opacity="0.4"><g transform="translate(74.974877, 14.414052)"><g><path d="M 11.4375 -11.65625 L 11.4375 -7.3125 L 8.984375 -7.3125 L 8.984375 -9.453125 L 7.578125 -9.453125 L 7.578125 -2.21875 L 8.96875 -2.21875 L 8.96875 0 L 2.765625 0 L 2.765625 -2.21875 L 4.140625 -2.21875 L 4.140625 -9.453125 L 2.703125 -9.453125 L 2.703125 -7.3125 L 0.25 -7.3125 L 0.25 -11.65625 Z M 11.4375 -11.65625 "/></g></g></g><g fill="#000000" fill-opacity="0.4"><g transform="translate(86.656544, 14.414052)"><g><path d="M 6.21875 0.296875 C 5.0625 0.296875 4.03125 0.0703125 3.125 -0.375 C 2.226562 -0.820312 1.523438 -1.503906 1.015625 -2.421875 C 0.503906 -3.335938 0.25 -4.492188 0.25 -5.890625 C 0.25 -7.085938 0.492188 -8.144531 0.984375 -9.0625 C 1.484375 -9.976562 2.175781 -10.691406 3.0625 -11.203125 C 3.945312 -11.710938 4.960938 -11.96875 6.109375 -11.96875 C 7.472656 -11.96875 8.59375 -11.710938 9.46875 -11.203125 C 10.351562 -10.691406 11.007812 -9.972656 11.4375 -9.046875 C 11.875 -8.117188 12.09375 -7.023438 12.09375 -5.765625 C 12.09375 -4.515625 11.863281 -3.4375 11.40625 -2.53125 C 10.945312 -1.625 10.28125 -0.925781 9.40625 -0.4375 C 8.539062 0.0507812 7.476562 0.296875 6.21875 0.296875 Z M 6.21875 -2.3125 C 6.738281 -2.3125 7.148438 -2.628906 7.453125 -3.265625 C 7.765625 -3.898438 7.921875 -4.734375 7.921875 -5.765625 C 7.921875 -6.441406 7.851562 -7.050781 7.71875 -7.59375 C 7.59375 -8.144531 7.394531 -8.582031 7.125 -8.90625 C 6.863281 -9.238281 6.515625 -9.40625 6.078125 -9.40625 C 5.742188 -9.414062 5.445312 -9.269531 5.1875 -8.96875 C 4.925781 -8.664062 4.722656 -8.25 4.578125 -7.71875 C 4.441406 -7.1875 4.375 -6.578125 4.375 -5.890625 C 4.375 -4.796875 4.546875 -3.925781 4.890625 -3.28125 C 5.242188 -2.632812 5.6875 -2.3125 6.21875 -2.3125 Z M 6.21875 -2.3125 "/></g></g></g><g fill="#000000" fill-opacity="0.4"><g transform="translate(98.988117, 14.414052)"><g><path d="M 0.421875 0 L 0.421875 -2.21875 L 1.453125 -2.21875 L 1.453125 -9.453125 L 0.421875 -9.453125 L 0.421875 -11.65625 L 5.5 -11.65625 C 6.84375 -11.65625 7.988281 -11.40625 8.9375 -10.90625 C 9.882812 -10.40625 10.601562 -9.722656 11.09375 -8.859375 C 11.59375 -8.003906 11.84375 -7.046875 11.84375 -5.984375 C 11.84375 -4.085938 11.285156 -2.613281 10.171875 -1.5625 C 9.066406 -0.519531 7.488281 0 5.4375 0 Z M 4.875 -2.21875 L 5.5 -2.21875 C 6.09375 -2.226562 6.570312 -2.398438 6.9375 -2.734375 C 7.300781 -3.078125 7.566406 -3.53125 7.734375 -4.09375 C 7.910156 -4.664062 8 -5.296875 8 -5.984375 C 8 -6.585938 7.910156 -7.148438 7.734375 -7.671875 C 7.566406 -8.203125 7.300781 -8.628906 6.9375 -8.953125 C 6.570312 -9.285156 6.09375 -9.453125 5.5 -9.453125 L 4.875 -9.453125 Z M 4.875 -2.21875 "/></g></g></g><g fill="#000000" fill-opacity="0.4"><g transform="translate(110.986404, 14.414052)"><g><path d="M 13.46875 0 L 6.78125 0 L 6.78125 -2.1875 L 8.375 -2.1875 L 8.015625 -3.3125 L 4.59375 -3.3125 L 4.25 -2.1875 L 5.546875 -2.1875 L 5.546875 0 L 0.25 0 L 0.25 -2.1875 L 1.390625 -2.1875 L 3.640625 -9.5 L 2.953125 -9.5 L 2.953125 -11.65625 L 9.359375 -11.65625 L 12.296875 -2.1875 L 13.46875 -2.1875 Z M 5.21875 -5.3125 L 7.40625 -5.3125 L 6.296875 -8.921875 Z M 5.21875 -5.3125 "/></g></g></g><g fill="#000000" fill-opacity="0.4"><g transform="translate(124.701111, 14.414052)"><g><path d="M 0.421875 0 L 0.421875 -4.203125 L 3.515625 -4.203125 C 3.515625 -3.859375 3.585938 -3.578125 3.734375 -3.359375 C 3.890625 -3.140625 4.082031 -2.972656 4.3125 -2.859375 C 4.539062 -2.742188 4.769531 -2.660156 5 -2.609375 C 5.238281 -2.566406 5.445312 -2.539062 5.625 -2.53125 C 5.820312 -2.53125 6.023438 -2.550781 6.234375 -2.59375 C 6.453125 -2.632812 6.640625 -2.710938 6.796875 -2.828125 C 6.953125 -2.953125 7.03125 -3.132812 7.03125 -3.375 C 7.03125 -3.5625 6.910156 -3.710938 6.671875 -3.828125 C 6.441406 -3.953125 6.140625 -4.066406 5.765625 -4.171875 C 5.390625 -4.285156 4.972656 -4.40625 4.515625 -4.53125 C 4.054688 -4.664062 3.597656 -4.828125 3.140625 -5.015625 C 2.691406 -5.203125 2.273438 -5.441406 1.890625 -5.734375 C 1.515625 -6.035156 1.210938 -6.394531 0.984375 -6.8125 C 0.753906 -7.238281 0.640625 -7.757812 0.640625 -8.375 C 0.640625 -8.988281 0.765625 -9.519531 1.015625 -9.96875 C 1.273438 -10.425781 1.609375 -10.796875 2.015625 -11.078125 C 2.421875 -11.367188 2.847656 -11.585938 3.296875 -11.734375 C 3.753906 -11.878906 4.1875 -11.953125 4.59375 -11.953125 C 5.300781 -11.953125 5.972656 -11.820312 6.609375 -11.5625 C 7.253906 -11.3125 7.742188 -10.875 8.078125 -10.25 L 8.25 -11.65625 L 11.125 -11.65625 L 11.125 -7.46875 L 8.109375 -7.46875 C 8.109375 -8.09375 7.898438 -8.570312 7.484375 -8.90625 C 7.066406 -9.238281 6.5625 -9.40625 5.96875 -9.40625 C 5.726562 -9.40625 5.472656 -9.328125 5.203125 -9.171875 C 4.941406 -9.023438 4.8125 -8.804688 4.8125 -8.515625 C 4.8125 -8.273438 4.929688 -8.066406 5.171875 -7.890625 C 5.410156 -7.722656 5.726562 -7.566406 6.125 -7.421875 C 6.519531 -7.273438 6.953125 -7.125 7.421875 -6.96875 C 7.890625 -6.820312 8.351562 -6.648438 8.8125 -6.453125 C 9.28125 -6.253906 9.710938 -6.015625 10.109375 -5.734375 C 10.503906 -5.453125 10.820312 -5.113281 11.0625 -4.71875 C 11.300781 -4.320312 11.421875 -3.84375 11.421875 -3.28125 C 11.421875 -2.632812 11.285156 -2.082031 11.015625 -1.625 C 10.753906 -1.175781 10.398438 -0.816406 9.953125 -0.546875 C 9.515625 -0.273438 9.035156 -0.078125 8.515625 0.046875 C 8.003906 0.179688 7.5 0.25 7 0.25 C 6.15625 0.25 5.441406 0.0859375 4.859375 -0.234375 C 4.285156 -0.554688 3.835938 -0.90625 3.515625 -1.28125 L 3.328125 0 Z M 0.421875 0 "/></g></g></g><g fill="#000000" fill-opacity="1"><g transform="translate(73.501232, 12.940409)"><g><path d="M 11.4375 -11.65625 L 11.4375 -7.3125 L 8.984375 -7.3125 L 8.984375 -9.453125 L 7.578125 -9.453125 L 7.578125 -2.21875 L 8.96875 -2.21875 L 8.96875 0 L 2.765625 0 L 2.765625 -2.21875 L 4.140625 -2.21875 L 4.140625 -9.453125 L 2.703125 -9.453125 L 2.703125 -7.3125 L 0.25 -7.3125 L 0.25 -11.65625 Z M 11.4375 -11.65625 "/></g></g></g><g fill="#000000" fill-opacity="1"><g transform="translate(85.1829, 12.940409)"><g><path d="M 6.21875 0.296875 C 5.0625 0.296875 4.03125 0.0703125 3.125 -0.375 C 2.226562 -0.820312 1.523438 -1.503906 1.015625 -2.421875 C 0.503906 -3.335938 0.25 -4.492188 0.25 -5.890625 C 0.25 -7.085938 0.492188 -8.144531 0.984375 -9.0625 C 1.484375 -9.976562 2.175781 -10.691406 3.0625 -11.203125 C 3.945312 -11.710938 4.960938 -11.96875 6.109375 -11.96875 C 7.472656 -11.96875 8.59375 -11.710938 9.46875 -11.203125 C 10.351562 -10.691406 11.007812 -9.972656 11.4375 -9.046875 C 11.875 -8.117188 12.09375 -7.023438 12.09375 -5.765625 C 12.09375 -4.515625 11.863281 -3.4375 11.40625 -2.53125 C 10.945312 -1.625 10.28125 -0.925781 9.40625 -0.4375 C 8.539062 0.0507812 7.476562 0.296875 6.21875 0.296875 Z M 6.21875 -2.3125 C 6.738281 -2.3125 7.148438 -2.628906 7.453125 -3.265625 C 7.765625 -3.898438 7.921875 -4.734375 7.921875 -5.765625 C 7.921875 -6.441406 7.851562 -7.050781 7.71875 -7.59375 C 7.59375 -8.144531 7.394531 -8.582031 7.125 -8.90625 C 6.863281 -9.238281 6.515625 -9.40625 6.078125 -9.40625 C 5.742188 -9.414062 5.445312 -9.269531 5.1875 -8.96875 C 4.925781 -8.664062 4.722656 -8.25 4.578125 -7.71875 C 4.441406 -7.1875 4.375 -6.578125 4.375 -5.890625 C 4.375 -4.796875 4.546875 -3.925781 4.890625 -3.28125 C 5.242188 -2.632812 5.6875 -2.3125 6.21875 -2.3125 Z M 6.21875 -2.3125 "/></g></g></g><g fill="#000000" fill-opacity="1"><g transform="translate(97.514473, 12.940409)"><g><path d="M 0.421875 0 L 0.421875 -2.21875 L 1.453125 -2.21875 L 1.453125 -9.453125 L 0.421875 -9.453125 L 0.421875 -11.65625 L 5.5 -11.65625 C 6.84375 -11.65625 7.988281 -11.40625 8.9375 -10.90625 C 9.882812 -10.40625 10.601562 -9.722656 11.09375 -8.859375 C 11.59375 -8.003906 11.84375 -7.046875 11.84375 -5.984375 C 11.84375 -4.085938 11.285156 -2.613281 10.171875 -1.5625 C 9.066406 -0.519531 7.488281 0 5.4375 0 Z M 4.875 -2.21875 L 5.5 -2.21875 C 6.09375 -2.226562 6.570312 -2.398438 6.9375 -2.734375 C 7.300781 -3.078125 7.566406 -3.53125 7.734375 -4.09375 C 7.910156 -4.664062 8 -5.296875 8 -5.984375 C 8 -6.585938 7.910156 -7.148438 7.734375 -7.671875 C 7.566406 -8.203125 7.300781 -8.628906 6.9375 -8.953125 C 6.570312 -9.285156 6.09375 -9.453125 5.5 -9.453125 L 4.875 -9.453125 Z M 4.875 -2.21875 "/></g></g></g><g fill="#000000" fill-opacity="1"><g transform="translate(109.51276, 12.940409)"><g><path d="M 13.46875 0 L 6.78125 0 L 6.78125 -2.1875 L 8.375 -2.1875 L 8.015625 -3.3125 L 4.59375 -3.3125 L 4.25 -2.1875 L 5.546875 -2.1875 L 5.546875 0 L 0.25 0 L 0.25 -2.1875 L 1.390625 -2.1875 L 3.640625 -9.5 L 2.953125 -9.5 L 2.953125 -11.65625 L 9.359375 -11.65625 L 12.296875 -2.1875 L 13.46875 -2.1875 Z M 5.21875 -5.3125 L 7.40625 -5.3125 L 6.296875 -8.921875 Z M 5.21875 -5.3125 "/></g></g></g><g fill="#000000" fill-opacity="1"><g transform="translate(123.227467, 12.940409)"><g><path d="M 0.421875 0 L 0.421875 -4.203125 L 3.515625 -4.203125 C 3.515625 -3.859375 3.585938 -3.578125 3.734375 -3.359375 C 3.890625 -3.140625 4.082031 -2.972656 4.3125 -2.859375 C 4.539062 -2.742188 4.769531 -2.660156 5 -2.609375 C 5.238281 -2.566406 5.445312 -2.539062 5.625 -2.53125 C 5.820312 -2.53125 6.023438 -2.550781 6.234375 -2.59375 C 6.453125 -2.632812 6.640625 -2.710938 6.796875 -2.828125 C 6.953125 -2.953125 7.03125 -3.132812 7.03125 -3.375 C 7.03125 -3.5625 6.910156 -3.710938 6.671875 -3.828125 C 6.441406 -3.953125 6.140625 -4.066406 5.765625 -4.171875 C 5.390625 -4.285156 4.972656 -4.40625 4.515625 -4.53125 C 4.054688 -4.664062 3.597656 -4.828125 3.140625 -5.015625 C 2.691406 -5.203125 2.273438 -5.441406 1.890625 -5.734375 C 1.515625 -6.035156 1.210938 -6.394531 0.984375 -6.8125 C 0.753906 -7.238281 0.640625 -7.757812 0.640625 -8.375 C 0.640625 -8.988281 0.765625 -9.519531 1.015625 -9.96875 C 1.273438 -10.425781 1.609375 -10.796875 2.015625 -11.078125 C 2.421875 -11.367188 2.847656 -11.585938 3.296875 -11.734375 C 3.753906 -11.878906 4.1875 -11.953125 4.59375 -11.953125 C 5.300781 -11.953125 5.972656 -11.820312 6.609375 -11.5625 C 7.253906 -11.3125 7.742188 -10.875 8.078125 -10.25 L 8.25 -11.65625 L 11.125 -11.65625 L 11.125 -7.46875 L 8.109375 -7.46875 C 8.109375 -8.09375 7.898438 -8.570312 7.484375 -8.90625 C 7.066406 -9.238281 6.5625 -9.40625 5.96875 -9.40625 C 5.726562 -9.40625 5.472656 -9.328125 5.203125 -9.171875 C 4.941406 -9.023438 4.8125 -8.804688 4.8125 -8.515625 C 4.8125 -8.273438 4.929688 -8.066406 5.171875 -7.890625 C 5.410156 -7.722656 5.726562 -7.566406 6.125 -7.421875 C 6.519531 -7.273438 6.953125 -7.125 7.421875 -6.96875 C 7.890625 -6.820312 8.351562 -6.648438 8.8125 -6.453125 C 9.28125 -6.253906 9.710938 -6.015625 10.109375 -5.734375 C 10.503906 -5.453125 10.820312 -5.113281 11.0625 -4.71875 C 11.300781 -4.320312 11.421875 -3.84375 11.421875 -3.28125 C 11.421875 -2.632812 11.285156 -2.082031 11.015625 -1.625 C 10.753906 -1.175781 10.398438 -0.816406 9.953125 -0.546875 C 9.515625 -0.273438 9.035156 -0.078125 8.515625 0.046875 C 8.003906 0.179688 7.5 0.25 7 0.25 C 6.15625 0.25 5.441406 0.0859375 4.859375 -0.234375 C 4.285156 -0.554688 3.835938 -0.90625 3.515625 -1.28125 L 3.328125 0 Z M 0.421875 0 "/></g></g></g><g clip-path="url(#3947a32ec8)"><g fill="#000000" fill-opacity="0.4"><g transform="translate(33.222139, 37.215437)"><g><path d="M 9.234375 -4.21875 L 11.1875 -2.078125 C 10.8125 -1.671875 10.367188 -1.285156 9.859375 -0.921875 C 9.359375 -0.566406 8.796875 -0.28125 8.171875 -0.0625 C 7.546875 0.15625 6.867188 0.265625 6.140625 0.265625 C 4.960938 0.265625 3.929688 0.0234375 3.046875 -0.453125 C 2.160156 -0.941406 1.472656 -1.632812 0.984375 -2.53125 C 0.492188 -3.425781 0.25 -4.488281 0.25 -5.71875 C 0.25 -6.675781 0.40625 -7.535156 0.71875 -8.296875 C 1.039062 -9.054688 1.457031 -9.695312 1.96875 -10.21875 C 2.476562 -10.75 3.023438 -11.15625 3.609375 -11.4375 C 4.203125 -11.71875 4.769531 -11.859375 5.3125 -11.859375 C 5.875 -11.859375 6.332031 -11.773438 6.6875 -11.609375 C 7.050781 -11.453125 7.328125 -11.28125 7.515625 -11.09375 C 7.710938 -10.90625 7.835938 -10.78125 7.890625 -10.71875 L 8.265625 -11.65625 L 10.890625 -11.65625 L 10.890625 -6.921875 L 7.90625 -6.921875 C 7.894531 -7.285156 7.820312 -7.625 7.6875 -7.9375 C 7.550781 -8.257812 7.359375 -8.519531 7.109375 -8.71875 C 6.859375 -8.914062 6.535156 -9.015625 6.140625 -9.015625 C 5.734375 -9.015625 5.382812 -8.863281 5.09375 -8.5625 C 4.800781 -8.269531 4.570312 -7.875 4.40625 -7.375 C 4.238281 -6.882812 4.15625 -6.332031 4.15625 -5.71875 C 4.15625 -5.175781 4.242188 -4.664062 4.421875 -4.1875 C 4.609375 -3.707031 4.882812 -3.316406 5.25 -3.015625 C 5.613281 -2.722656 6.054688 -2.578125 6.578125 -2.578125 C 6.941406 -2.578125 7.269531 -2.648438 7.5625 -2.796875 C 7.863281 -2.953125 8.132812 -3.132812 8.375 -3.34375 C 8.613281 -3.550781 8.804688 -3.738281 8.953125 -3.90625 C 9.109375 -4.070312 9.203125 -4.175781 9.234375 -4.21875 Z M 9.234375 -4.21875 "/></g></g></g></g><g clip-path="url(#296d6f52d7)"><g fill="#000000" fill-opacity="0.4"><g transform="translate(44.653841, 37.215437)"><g><path d="M 13.46875 0 L 6.78125 0 L 6.78125 -2.1875 L 8.375 -2.1875 L 8.015625 -3.3125 L 4.59375 -3.3125 L 4.25 -2.1875 L 5.546875 -2.1875 L 5.546875 0 L 0.25 0 L 0.25 -2.1875 L 1.390625 -2.1875 L 3.640625 -9.5 L 2.953125 -9.5 L 2.953125 -11.65625 L 9.359375 -11.65625 L 12.296875 -2.1875 L 13.46875 -2.1875 Z M 5.21875 -5.3125 L 7.40625 -5.3125 L 6.296875 -8.921875 Z M 5.21875 -5.3125 "/></g></g></g></g><g clip-path="url(#78d91b3aa4)"><g fill="#000000" fill-opacity="0.4"><g transform="translate(58.368549, 37.215437)"><g><path d="M 0.421875 -11.65625 L 5.6875 -11.65625 L 5.6875 -9.453125 L 4.796875 -9.453125 L 4.796875 -2.21875 L 6.953125 -2.21875 L 6.953125 -4.328125 L 9.75 -4.328125 L 9.75 0 L 0.421875 0 L 0.421875 -2.21875 L 1.328125 -2.21875 L 1.328125 -9.453125 L 0.421875 -9.453125 Z M 0.421875 -11.65625 "/></g></g></g></g><g clip-path="url(#cefbc4f8ed)"><g fill="#000000" fill-opacity="0.4"><g transform="translate(68.53376, 37.215437)"><g><path d="M 9.234375 -4.21875 L 11.1875 -2.078125 C 10.8125 -1.671875 10.367188 -1.285156 9.859375 -0.921875 C 9.359375 -0.566406 8.796875 -0.28125 8.171875 -0.0625 C 7.546875 0.15625 6.867188 0.265625 6.140625 0.265625 C 4.960938 0.265625 3.929688 0.0234375 3.046875 -0.453125 C 2.160156 -0.941406 1.472656 -1.632812 0.984375 -2.53125 C 0.492188 -3.425781 0.25 -4.488281 0.25 -5.71875 C 0.25 -6.675781 0.40625 -7.535156 0.71875 -8.296875 C 1.039062 -9.054688 1.457031 -9.695312 1.96875 -10.21875 C 2.476562 -10.75 3.023438 -11.15625 3.609375 -11.4375 C 4.203125 -11.71875 4.769531 -11.859375 5.3125 -11.859375 C 5.875 -11.859375 6.332031 -11.773438 6.6875 -11.609375 C 7.050781 -11.453125 7.328125 -11.28125 7.515625 -11.09375 C 7.710938 -10.90625 7.835938 -10.78125 7.890625 -10.71875 L 8.265625 -11.65625 L 10.890625 -11.65625 L 10.890625 -6.921875 L 7.90625 -6.921875 C 7.894531 -7.285156 7.820312 -7.625 7.6875 -7.9375 C 7.550781 -8.257812 7.359375 -8.519531 7.109375 -8.71875 C 6.859375 -8.914062 6.535156 -9.015625 6.140625 -9.015625 C 5.734375 -9.015625 5.382812 -8.863281 5.09375 -8.5625 C 4.800781 -8.269531 4.570312 -7.875 4.40625 -7.375 C 4.238281 -6.882812 4.15625 -6.332031 4.15625 -5.71875 C 4.15625 -5.175781 4.242188 -4.664062 4.421875 -4.1875 C 4.609375 -3.707031 4.882812 -3.316406 5.25 -3.015625 C 5.613281 -2.722656 6.054688 -2.578125 6.578125 -2.578125 C 6.941406 -2.578125 7.269531 -2.648438 7.5625 -2.796875 C 7.863281 -2.953125 8.132812 -3.132812 8.375 -3.34375 C 8.613281 -3.550781 8.804688 -3.738281 8.953125 -3.90625 C 9.109375 -4.070312 9.203125 -4.175781 9.234375 -4.21875 Z M 9.234375 -4.21875 "/></g></g></g></g><g clip-path="url(#d2861b896c)"><g fill="#000000" fill-opacity="0.4"><g transform="translate(79.965463, 37.215437)"><g><path d="M 0.25 -11.65625 L 5.546875 -11.65625 L 5.546875 -9.5 L 4.65625 -9.5 L 4.65625 -5.90625 C 4.65625 -5.007812 4.71875 -4.328125 4.84375 -3.859375 C 4.96875 -3.390625 5.15625 -3.070312 5.40625 -2.90625 C 5.65625 -2.738281 5.957031 -2.65625 6.3125 -2.65625 C 6.65625 -2.65625 6.953125 -2.722656 7.203125 -2.859375 C 7.453125 -3.003906 7.644531 -3.3125 7.78125 -3.78125 C 7.925781 -4.25 8 -4.960938 8 -5.921875 L 8 -9.453125 L 7.109375 -9.453125 L 7.109375 -11.65625 L 12.03125 -11.65625 L 12.03125 -9.5 L 11.140625 -9.5 L 11.140625 -5.453125 C 11.140625 -3.472656 10.734375 -2.019531 9.921875 -1.09375 C 9.109375 -0.175781 7.921875 0.28125 6.359375 0.28125 C 4.671875 0.226562 3.382812 -0.25 2.5 -1.15625 C 1.625 -2.070312 1.1875 -3.476562 1.1875 -5.375 L 1.1875 -9.484375 L 0.25 -9.484375 Z M 0.25 -11.65625 "/></g></g></g></g><g clip-path="url(#66b837a737)"><g fill="#000000" fill-opacity="0.4"><g transform="translate(92.247036, 37.215437)"><g><path d="M 0.421875 -11.65625 L 5.6875 -11.65625 L 5.6875 -9.453125 L 4.796875 -9.453125 L 4.796875 -2.21875 L 6.953125 -2.21875 L 6.953125 -4.328125 L 9.75 -4.328125 L 9.75 0 L 0.421875 0 L 0.421875 -2.21875 L 1.328125 -2.21875 L 1.328125 -9.453125 L 0.421875 -9.453125 Z M 0.421875 -11.65625 "/></g></g></g></g><g clip-path="url(#c16a1e9525)"><g fill="#000000" fill-opacity="0.4"><g transform="translate(102.412248, 37.215437)"><g><path d="M 13.46875 0 L 6.78125 0 L 6.78125 -2.1875 L 8.375 -2.1875 L 8.015625 -3.3125 L 4.59375 -3.3125 L 4.25 -2.1875 L 5.546875 -2.1875 L 5.546875 0 L 0.25 0 L 0.25 -2.1875 L 1.390625 -2.1875 L 3.640625 -9.5 L 2.953125 -9.5 L 2.953125 -11.65625 L 9.359375 -11.65625 L 12.296875 -2.1875 L 13.46875 -2.1875 Z M 5.21875 -5.3125 L 7.40625 -5.3125 L 6.296875 -8.921875 Z M 5.21875 -5.3125 "/></g></g></g></g><g clip-path="url(#1618df503f)"><g fill="#000000" fill-opacity="0.4"><g transform="translate(116.126956, 37.215437)"><g><path d="M 0.421875 0 L 0.421875 -2.21875 L 1.453125 -2.21875 L 1.453125 -9.453125 L 0.421875 -9.453125 L 0.421875 -11.65625 L 5.5 -11.65625 C 6.84375 -11.65625 7.988281 -11.40625 8.9375 -10.90625 C 9.882812 -10.40625 10.601562 -9.722656 11.09375 -8.859375 C 11.59375 -8.003906 11.84375 -7.046875 11.84375 -5.984375 C 11.84375 -4.085938 11.285156 -2.613281 10.171875 -1.5625 C 9.066406 -0.519531 7.488281 0 5.4375 0 Z M 4.875 -2.21875 L 5.5 -2.21875 C 6.09375 -2.226562 6.570312 -2.398438 6.9375 -2.734375 C 7.300781 -3.078125 7.566406 -3.53125 7.734375 -4.09375 C 7.910156 -4.664062 8 -5.296875 8 -5.984375 C 8 -6.585938 7.910156 -7.148438 7.734375 -7.671875 C 7.566406 -8.203125 7.300781 -8.628906 6.9375 -8.953125 C 6.570312 -9.285156 6.09375 -9.453125 5.5 -9.453125 L 4.875 -9.453125 Z M 4.875 -2.21875 "/></g></g></g></g><g clip-path="url(#336a6198b7)"><g fill="#000000" fill-opacity="0.4"><g transform="translate(128.125243, 37.215437)"><g><path d="M 6.21875 0.296875 C 5.0625 0.296875 4.03125 0.0703125 3.125 -0.375 C 2.226562 -0.820312 1.523438 -1.503906 1.015625 -2.421875 C 0.503906 -3.335938 0.25 -4.492188 0.25 -5.890625 C 0.25 -7.085938 0.492188 -8.144531 0.984375 -9.0625 C 1.484375 -9.976562 2.175781 -10.691406 3.0625 -11.203125 C 3.945312 -11.710938 4.960938 -11.96875 6.109375 -11.96875 C 7.472656 -11.96875 8.59375 -11.710938 9.46875 -11.203125 C 10.351562 -10.691406 11.007812 -9.972656 11.4375 -9.046875 C 11.875 -8.117188 12.09375 -7.023438 12.09375 -5.765625 C 12.09375 -4.515625 11.863281 -3.4375 11.40625 -2.53125 C 10.945312 -1.625 10.28125 -0.925781 9.40625 -0.4375 C 8.539062 0.0507812 7.476562 0.296875 6.21875 0.296875 Z M 6.21875 -2.3125 C 6.738281 -2.3125 7.148438 -2.628906 7.453125 -3.265625 C 7.765625 -3.898438 7.921875 -4.734375 7.921875 -5.765625 C 7.921875 -6.441406 7.851562 -7.050781 7.71875 -7.59375 C 7.59375 -8.144531 7.394531 -8.582031 7.125 -8.90625 C 6.863281 -9.238281 6.515625 -9.40625 6.078125 -9.40625 C 5.742188 -9.414062 5.445312 -9.269531 5.1875 -8.96875 C 4.925781 -8.664062 4.722656 -8.25 4.578125 -7.71875 C 4.441406 -7.1875 4.375 -6.578125 4.375 -5.890625 C 4.375 -4.796875 4.546875 -3.925781 4.890625 -3.28125 C 5.242188 -2.632812 5.6875 -2.3125 6.21875 -2.3125 Z M 6.21875 -2.3125 "/></g></g></g></g><g clip-path="url(#aca18cfa86)"><g fill="#000000" fill-opacity="0.4"><g transform="translate(140.456816, 37.215437)"><g><path d="M 0.421875 -11.65625 L 5.828125 -11.65625 C 6.796875 -11.65625 7.582031 -11.566406 8.1875 -11.390625 C 8.800781 -11.210938 9.269531 -10.960938 9.59375 -10.640625 C 9.925781 -10.328125 10.148438 -9.960938 10.265625 -9.546875 C 10.390625 -9.140625 10.453125 -8.695312 10.453125 -8.21875 C 10.453125 -7.570312 10.21875 -7.03125 9.75 -6.59375 C 9.289062 -6.164062 8.71875 -5.898438 8.03125 -5.796875 C 8.425781 -5.742188 8.785156 -5.601562 9.109375 -5.375 C 9.441406 -5.15625 9.707031 -4.875 9.90625 -4.53125 C 10.113281 -4.195312 10.21875 -3.832031 10.21875 -3.4375 C 10.21875 -3.082031 10.25 -2.800781 10.3125 -2.59375 C 10.375 -2.394531 10.476562 -2.296875 10.625 -2.296875 C 10.875 -2.296875 11 -2.472656 11 -2.828125 L 11 -3.390625 L 12.125 -3.390625 L 12.125 -2.46875 C 12.125 -2.007812 12.046875 -1.570312 11.890625 -1.15625 C 11.742188 -0.75 11.492188 -0.421875 11.140625 -0.171875 C 10.796875 0.078125 10.3125 0.203125 9.6875 0.203125 C 8.59375 0.203125 7.78125 -0.0664062 7.25 -0.609375 C 6.71875 -1.160156 6.453125 -1.925781 6.453125 -2.90625 C 6.453125 -3.414062 6.414062 -3.800781 6.34375 -4.0625 C 6.269531 -4.332031 6.113281 -4.519531 5.875 -4.625 C 5.644531 -4.726562 5.28125 -4.78125 4.78125 -4.78125 L 4.78125 -2.203125 L 5.796875 -2.203125 L 5.796875 0 L 0.421875 0 L 0.421875 -2.203125 L 1.34375 -2.203125 L 1.34375 -9.46875 L 0.421875 -9.46875 Z M 4.78125 -9.484375 L 4.78125 -6.65625 L 5.53125 -6.65625 C 6.019531 -6.65625 6.410156 -6.765625 6.703125 -6.984375 C 6.992188 -7.210938 7.140625 -7.550781 7.140625 -8 C 7.140625 -8.488281 7.007812 -8.859375 6.75 -9.109375 C 6.488281 -9.359375 6.113281 -9.484375 5.625 -9.484375 Z M 4.78125 -9.484375 "/></g></g></g></g><g clip-path="url(#e307d5c653)"><g fill="#000000" fill-opacity="0.4"><g transform="translate(152.73839, 37.215437)"><g><path d="M 13.46875 0 L 6.78125 0 L 6.78125 -2.1875 L 8.375 -2.1875 L 8.015625 -3.3125 L 4.59375 -3.3125 L 4.25 -2.1875 L 5.546875 -2.1875 L 5.546875 0 L 0.25 0 L 0.25 -2.1875 L 1.390625 -2.1875 L 3.640625 -9.5 L 2.953125 -9.5 L 2.953125 -11.65625 L 9.359375 -11.65625 L 12.296875 -2.1875 L 13.46875 -2.1875 Z M 5.21875 -5.3125 L 7.40625 -5.3125 L 6.296875 -8.921875 Z M 5.21875 -5.3125 "/></g></g></g></g><g clip-path="url(#541c754332)"><g fill="#000000" fill-opacity="0.4"><g transform="translate(166.453097, 37.215437)"><g><path d="M 0.421875 0 L 0.421875 -4.203125 L 3.515625 -4.203125 C 3.515625 -3.859375 3.585938 -3.578125 3.734375 -3.359375 C 3.890625 -3.140625 4.082031 -2.972656 4.3125 -2.859375 C 4.539062 -2.742188 4.769531 -2.660156 5 -2.609375 C 5.238281 -2.566406 5.445312 -2.539062 5.625 -2.53125 C 5.820312 -2.53125 6.023438 -2.550781 6.234375 -2.59375 C 6.453125 -2.632812 6.640625 -2.710938 6.796875 -2.828125 C 6.953125 -2.953125 7.03125 -3.132812 7.03125 -3.375 C 7.03125 -3.5625 6.910156 -3.710938 6.671875 -3.828125 C 6.441406 -3.953125 6.140625 -4.066406 5.765625 -4.171875 C 5.390625 -4.285156 4.972656 -4.40625 4.515625 -4.53125 C 4.054688 -4.664062 3.597656 -4.828125 3.140625 -5.015625 C 2.691406 -5.203125 2.273438 -5.441406 1.890625 -5.734375 C 1.515625 -6.035156 1.210938 -6.394531 0.984375 -6.8125 C 0.753906 -7.238281 0.640625 -7.757812 0.640625 -8.375 C 0.640625 -8.988281 0.765625 -9.519531 1.015625 -9.96875 C 1.273438 -10.425781 1.609375 -10.796875 2.015625 -11.078125 C 2.421875 -11.367188 2.847656 -11.585938 3.296875 -11.734375 C 3.753906 -11.878906 4.1875 -11.953125 4.59375 -11.953125 C 5.300781 -11.953125 5.972656 -11.820312 6.609375 -11.5625 C 7.253906 -11.3125 7.742188 -10.875 8.078125 -10.25 L 8.25 -11.65625 L 11.125 -11.65625 L 11.125 -7.46875 L 8.109375 -7.46875 C 8.109375 -8.09375 7.898438 -8.570312 7.484375 -8.90625 C 7.066406 -9.238281 6.5625 -9.40625 5.96875 -9.40625 C 5.726562 -9.40625 5.472656 -9.328125 5.203125 -9.171875 C 4.941406 -9.023438 4.8125 -8.804688 4.8125 -8.515625 C 4.8125 -8.273438 4.929688 -8.066406 5.171875 -7.890625 C 5.410156 -7.722656 5.726562 -7.566406 6.125 -7.421875 C 6.519531 -7.273438 6.953125 -7.125 7.421875 -6.96875 C 7.890625 -6.820312 8.351562 -6.648438 8.8125 -6.453125 C 9.28125 -6.253906 9.710938 -6.015625 10.109375 -5.734375 C 10.503906 -5.453125 10.820312 -5.113281 11.0625 -4.71875 C 11.300781 -4.320312 11.421875 -3.84375 11.421875 -3.28125 C 11.421875 -2.632812 11.285156 -2.082031 11.015625 -1.625 C 10.753906 -1.175781 10.398438 -0.816406 9.953125 -0.546875 C 9.515625 -0.273438 9.035156 -0.078125 8.515625 0.046875 C 8.003906 0.179688 7.5 0.25 7 0.25 C 6.15625 0.25 5.441406 0.0859375 4.859375 -0.234375 C 4.285156 -0.554688 3.835938 -0.90625 3.515625 -1.28125 L 3.328125 0 Z M 0.421875 0 "/></g></g></g></g><g fill="#000000" fill-opacity="1"><g transform="translate(31.748495, 35.741794)"><g><path d="M 9.234375 -4.21875 L 11.1875 -2.078125 C 10.8125 -1.671875 10.367188 -1.285156 9.859375 -0.921875 C 9.359375 -0.566406 8.796875 -0.28125 8.171875 -0.0625 C 7.546875 0.15625 6.867188 0.265625 6.140625 0.265625 C 4.960938 0.265625 3.929688 0.0234375 3.046875 -0.453125 C 2.160156 -0.941406 1.472656 -1.632812 0.984375 -2.53125 C 0.492188 -3.425781 0.25 -4.488281 0.25 -5.71875 C 0.25 -6.675781 0.40625 -7.535156 0.71875 -8.296875 C 1.039062 -9.054688 1.457031 -9.695312 1.96875 -10.21875 C 2.476562 -10.75 3.023438 -11.15625 3.609375 -11.4375 C 4.203125 -11.71875 4.769531 -11.859375 5.3125 -11.859375 C 5.875 -11.859375 6.332031 -11.773438 6.6875 -11.609375 C 7.050781 -11.453125 7.328125 -11.28125 7.515625 -11.09375 C 7.710938 -10.90625 7.835938 -10.78125 7.890625 -10.71875 L 8.265625 -11.65625 L 10.890625 -11.65625 L 10.890625 -6.921875 L 7.90625 -6.921875 C 7.894531 -7.285156 7.820312 -7.625 7.6875 -7.9375 C 7.550781 -8.257812 7.359375 -8.519531 7.109375 -8.71875 C 6.859375 -8.914062 6.535156 -9.015625 6.140625 -9.015625 C 5.734375 -9.015625 5.382812 -8.863281 5.09375 -8.5625 C 4.800781 -8.269531 4.570312 -7.875 4.40625 -7.375 C 4.238281 -6.882812 4.15625 -6.332031 4.15625 -5.71875 C 4.15625 -5.175781 4.242188 -4.664062 4.421875 -4.1875 C 4.609375 -3.707031 4.882812 -3.316406 5.25 -3.015625 C 5.613281 -2.722656 6.054688 -2.578125 6.578125 -2.578125 C 6.941406 -2.578125 7.269531 -2.648438 7.5625 -2.796875 C 7.863281 -2.953125 8.132812 -3.132812 8.375 -3.34375 C 8.613281 -3.550781 8.804688 -3.738281 8.953125 -3.90625 C 9.109375 -4.070312 9.203125 -4.175781 9.234375 -4.21875 Z M 9.234375 -4.21875 "/></g></g></g><g fill="#000000" fill-opacity="1"><g transform="translate(43.180197, 35.741794)"><g><path d="M 13.46875 0 L 6.78125 0 L 6.78125 -2.1875 L 8.375 -2.1875 L 8.015625 -3.3125 L 4.59375 -3.3125 L 4.25 -2.1875 L 5.546875 -2.1875 L 5.546875 0 L 0.25 0 L 0.25 -2.1875 L 1.390625 -2.1875 L 3.640625 -9.5 L 2.953125 -9.5 L 2.953125 -11.65625 L 9.359375 -11.65625 L 12.296875 -2.1875 L 13.46875 -2.1875 Z M 5.21875 -5.3125 L 7.40625 -5.3125 L 6.296875 -8.921875 Z M 5.21875 -5.3125 "/></g></g></g><g fill="#000000" fill-opacity="1"><g transform="translate(56.894904, 35.741794)"><g><path d="M 0.421875 -11.65625 L 5.6875 -11.65625 L 5.6875 -9.453125 L 4.796875 -9.453125 L 4.796875 -2.21875 L 6.953125 -2.21875 L 6.953125 -4.328125 L 9.75 -4.328125 L 9.75 0 L 0.421875 0 L 0.421875 -2.21875 L 1.328125 -2.21875 L 1.328125 -9.453125 L 0.421875 -9.453125 Z M 0.421875 -11.65625 "/></g></g></g><g fill="#000000" fill-opacity="1"><g transform="translate(67.060116, 35.741794)"><g><path d="M 9.234375 -4.21875 L 11.1875 -2.078125 C 10.8125 -1.671875 10.367188 -1.285156 9.859375 -0.921875 C 9.359375 -0.566406 8.796875 -0.28125 8.171875 -0.0625 C 7.546875 0.15625 6.867188 0.265625 6.140625 0.265625 C 4.960938 0.265625 3.929688 0.0234375 3.046875 -0.453125 C 2.160156 -0.941406 1.472656 -1.632812 0.984375 -2.53125 C 0.492188 -3.425781 0.25 -4.488281 0.25 -5.71875 C 0.25 -6.675781 0.40625 -7.535156 0.71875 -8.296875 C 1.039062 -9.054688 1.457031 -9.695312 1.96875 -10.21875 C 2.476562 -10.75 3.023438 -11.15625 3.609375 -11.4375 C 4.203125 -11.71875 4.769531 -11.859375 5.3125 -11.859375 C 5.875 -11.859375 6.332031 -11.773438 6.6875 -11.609375 C 7.050781 -11.453125 7.328125 -11.28125 7.515625 -11.09375 C 7.710938 -10.90625 7.835938 -10.78125 7.890625 -10.71875 L 8.265625 -11.65625 L 10.890625 -11.65625 L 10.890625 -6.921875 L 7.90625 -6.921875 C 7.894531 -7.285156 7.820312 -7.625 7.6875 -7.9375 C 7.550781 -8.257812 7.359375 -8.519531 7.109375 -8.71875 C 6.859375 -8.914062 6.535156 -9.015625 6.140625 -9.015625 C 5.734375 -9.015625 5.382812 -8.863281 5.09375 -8.5625 C 4.800781 -8.269531 4.570312 -7.875 4.40625 -7.375 C 4.238281 -6.882812 4.15625 -6.332031 4.15625 -5.71875 C 4.15625 -5.175781 4.242188 -4.664062 4.421875 -4.1875 C 4.609375 -3.707031 4.882812 -3.316406 5.25 -3.015625 C 5.613281 -2.722656 6.054688 -2.578125 6.578125 -2.578125 C 6.941406 -2.578125 7.269531 -2.648438 7.5625 -2.796875 C 7.863281 -2.953125 8.132812 -3.132812 8.375 -3.34375 C 8.613281 -3.550781 8.804688 -3.738281 8.953125 -3.90625 C 9.109375 -4.070312 9.203125 -4.175781 9.234375 -4.21875 Z M 9.234375 -4.21875 "/></g></g></g><g fill="#000000" fill-opacity="1"><g transform="translate(78.491819, 35.741794)"><g><path d="M 0.25 -11.65625 L 5.546875 -11.65625 L 5.546875 -9.5 L 4.65625 -9.5 L 4.65625 -5.90625 C 4.65625 -5.007812 4.71875 -4.328125 4.84375 -3.859375 C 4.96875 -3.390625 5.15625 -3.070312 5.40625 -2.90625 C 5.65625 -2.738281 5.957031 -2.65625 6.3125 -2.65625 C 6.65625 -2.65625 6.953125 -2.722656 7.203125 -2.859375 C 7.453125 -3.003906 7.644531 -3.3125 7.78125 -3.78125 C 7.925781 -4.25 8 -4.960938 8 -5.921875 L 8 -9.453125 L 7.109375 -9.453125 L 7.109375 -11.65625 L 12.03125 -11.65625 L 12.03125 -9.5 L 11.140625 -9.5 L 11.140625 -5.453125 C 11.140625 -3.472656 10.734375 -2.019531 9.921875 -1.09375 C 9.109375 -0.175781 7.921875 0.28125 6.359375 0.28125 C 4.671875 0.226562 3.382812 -0.25 2.5 -1.15625 C 1.625 -2.070312 1.1875 -3.476562 1.1875 -5.375 L 1.1875 -9.484375 L 0.25 -9.484375 Z M 0.25 -11.65625 "/></g></g></g><g fill="#000000" fill-opacity="1"><g transform="translate(90.773392, 35.741794)"><g><path d="M 0.421875 -11.65625 L 5.6875 -11.65625 L 5.6875 -9.453125 L 4.796875 -9.453125 L 4.796875 -2.21875 L 6.953125 -2.21875 L 6.953125 -4.328125 L 9.75 -4.328125 L 9.75 0 L 0.421875 0 L 0.421875 -2.21875 L 1.328125 -2.21875 L 1.328125 -9.453125 L 0.421875 -9.453125 Z M 0.421875 -11.65625 "/></g></g></g><g fill="#000000" fill-opacity="1"><g transform="translate(100.938604, 35.741794)"><g><path d="M 13.46875 0 L 6.78125 0 L 6.78125 -2.1875 L 8.375 -2.1875 L 8.015625 -3.3125 L 4.59375 -3.3125 L 4.25 -2.1875 L 5.546875 -2.1875 L 5.546875 0 L 0.25 0 L 0.25 -2.1875 L 1.390625 -2.1875 L 3.640625 -9.5 L 2.953125 -9.5 L 2.953125 -11.65625 L 9.359375 -11.65625 L 12.296875 -2.1875 L 13.46875 -2.1875 Z M 5.21875 -5.3125 L 7.40625 -5.3125 L 6.296875 -8.921875 Z M 5.21875 -5.3125 "/></g></g></g><g fill="#000000" fill-opacity="1"><g transform="translate(114.653311, 35.741794)"><g><path d="M 0.421875 0 L 0.421875 -2.21875 L 1.453125 -2.21875 L 1.453125 -9.453125 L 0.421875 -9.453125 L 0.421875 -11.65625 L 5.5 -11.65625 C 6.84375 -11.65625 7.988281 -11.40625 8.9375 -10.90625 C 9.882812 -10.40625 10.601562 -9.722656 11.09375 -8.859375 C 11.59375 -8.003906 11.84375 -7.046875 11.84375 -5.984375 C 11.84375 -4.085938 11.285156 -2.613281 10.171875 -1.5625 C 9.066406 -0.519531 7.488281 0 5.4375 0 Z M 4.875 -2.21875 L 5.5 -2.21875 C 6.09375 -2.226562 6.570312 -2.398438 6.9375 -2.734375 C 7.300781 -3.078125 7.566406 -3.53125 7.734375 -4.09375 C 7.910156 -4.664062 8 -5.296875 8 -5.984375 C 8 -6.585938 7.910156 -7.148438 7.734375 -7.671875 C 7.566406 -8.203125 7.300781 -8.628906 6.9375 -8.953125 C 6.570312 -9.285156 6.09375 -9.453125 5.5 -9.453125 L 4.875 -9.453125 Z M 4.875 -2.21875 "/></g></g></g><g fill="#000000" fill-opacity="1"><g transform="translate(126.651598, 35.741794)"><g><path d="M 6.21875 0.296875 C 5.0625 0.296875 4.03125 0.0703125 3.125 -0.375 C 2.226562 -0.820312 1.523438 -1.503906 1.015625 -2.421875 C 0.503906 -3.335938 0.25 -4.492188 0.25 -5.890625 C 0.25 -7.085938 0.492188 -8.144531 0.984375 -9.0625 C 1.484375 -9.976562 2.175781 -10.691406 3.0625 -11.203125 C 3.945312 -11.710938 4.960938 -11.96875 6.109375 -11.96875 C 7.472656 -11.96875 8.59375 -11.710938 9.46875 -11.203125 C 10.351562 -10.691406 11.007812 -9.972656 11.4375 -9.046875 C 11.875 -8.117188 12.09375 -7.023438 12.09375 -5.765625 C 12.09375 -4.515625 11.863281 -3.4375 11.40625 -2.53125 C 10.945312 -1.625 10.28125 -0.925781 9.40625 -0.4375 C 8.539062 0.0507812 7.476562 0.296875 6.21875 0.296875 Z M 6.21875 -2.3125 C 6.738281 -2.3125 7.148438 -2.628906 7.453125 -3.265625 C 7.765625 -3.898438 7.921875 -4.734375 7.921875 -5.765625 C 7.921875 -6.441406 7.851562 -7.050781 7.71875 -7.59375 C 7.59375 -8.144531 7.394531 -8.582031 7.125 -8.90625 C 6.863281 -9.238281 6.515625 -9.40625 6.078125 -9.40625 C 5.742188 -9.414062 5.445312 -9.269531 5.1875 -8.96875 C 4.925781 -8.664062 4.722656 -8.25 4.578125 -7.71875 C 4.441406 -7.1875 4.375 -6.578125 4.375 -5.890625 C 4.375 -4.796875 4.546875 -3.925781 4.890625 -3.28125 C 5.242188 -2.632812 5.6875 -2.3125 6.21875 -2.3125 Z M 6.21875 -2.3125 "/></g></g></g><g fill="#000000" fill-opacity="1"><g transform="translate(138.983172, 35.741794)"><g><path d="M 0.421875 -11.65625 L 5.828125 -11.65625 C 6.796875 -11.65625 7.582031 -11.566406 8.1875 -11.390625 C 8.800781 -11.210938 9.269531 -10.960938 9.59375 -10.640625 C 9.925781 -10.328125 10.148438 -9.960938 10.265625 -9.546875 C 10.390625 -9.140625 10.453125 -8.695312 10.453125 -8.21875 C 10.453125 -7.570312 10.21875 -7.03125 9.75 -6.59375 C 9.289062 -6.164062 8.71875 -5.898438 8.03125 -5.796875 C 8.425781 -5.742188 8.785156 -5.601562 9.109375 -5.375 C 9.441406 -5.15625 9.707031 -4.875 9.90625 -4.53125 C 10.113281 -4.195312 10.21875 -3.832031 10.21875 -3.4375 C 10.21875 -3.082031 10.25 -2.800781 10.3125 -2.59375 C 10.375 -2.394531 10.476562 -2.296875 10.625 -2.296875 C 10.875 -2.296875 11 -2.472656 11 -2.828125 L 11 -3.390625 L 12.125 -3.390625 L 12.125 -2.46875 C 12.125 -2.007812 12.046875 -1.570312 11.890625 -1.15625 C 11.742188 -0.75 11.492188 -0.421875 11.140625 -0.171875 C 10.796875 0.078125 10.3125 0.203125 9.6875 0.203125 C 8.59375 0.203125 7.78125 -0.0664062 7.25 -0.609375 C 6.71875 -1.160156 6.453125 -1.925781 6.453125 -2.90625 C 6.453125 -3.414062 6.414062 -3.800781 6.34375 -4.0625 C 6.269531 -4.332031 6.113281 -4.519531 5.875 -4.625 C 5.644531 -4.726562 5.28125 -4.78125 4.78125 -4.78125 L 4.78125 -2.203125 L 5.796875 -2.203125 L 5.796875 0 L 0.421875 0 L 0.421875 -2.203125 L 1.34375 -2.203125 L 1.34375 -9.46875 L 0.421875 -9.46875 Z M 4.78125 -9.484375 L 4.78125 -6.65625 L 5.53125 -6.65625 C 6.019531 -6.65625 6.410156 -6.765625 6.703125 -6.984375 C 6.992188 -7.210938 7.140625 -7.550781 7.140625 -8 C 7.140625 -8.488281 7.007812 -8.859375 6.75 -9.109375 C 6.488281 -9.359375 6.113281 -9.484375 5.625 -9.484375 Z M 4.78125 -9.484375 "/></g></g></g><g fill="#000000" fill-opacity="1"><g transform="translate(151.264745, 35.741794)"><g><path d="M 13.46875 0 L 6.78125 0 L 6.78125 -2.1875 L 8.375 -2.1875 L 8.015625 -3.3125 L 4.59375 -3.3125 L 4.25 -2.1875 L 5.546875 -2.1875 L 5.546875 0 L 0.25 0 L 0.25 -2.1875 L 1.390625 -2.1875 L 3.640625 -9.5 L 2.953125 -9.5 L 2.953125 -11.65625 L 9.359375 -11.65625 L 12.296875 -2.1875 L 13.46875 -2.1875 Z M 5.21875 -5.3125 L 7.40625 -5.3125 L 6.296875 -8.921875 Z M 5.21875 -5.3125 "/></g></g></g><g fill="#000000" fill-opacity="1"><g transform="translate(164.979452, 35.741794)"><g><path d="M 0.421875 0 L 0.421875 -4.203125 L 3.515625 -4.203125 C 3.515625 -3.859375 3.585938 -3.578125 3.734375 -3.359375 C 3.890625 -3.140625 4.082031 -2.972656 4.3125 -2.859375 C 4.539062 -2.742188 4.769531 -2.660156 5 -2.609375 C 5.238281 -2.566406 5.445312 -2.539062 5.625 -2.53125 C 5.820312 -2.53125 6.023438 -2.550781 6.234375 -2.59375 C 6.453125 -2.632812 6.640625 -2.710938 6.796875 -2.828125 C 6.953125 -2.953125 7.03125 -3.132812 7.03125 -3.375 C 7.03125 -3.5625 6.910156 -3.710938 6.671875 -3.828125 C 6.441406 -3.953125 6.140625 -4.066406 5.765625 -4.171875 C 5.390625 -4.285156 4.972656 -4.40625 4.515625 -4.53125 C 4.054688 -4.664062 3.597656 -4.828125 3.140625 -5.015625 C 2.691406 -5.203125 2.273438 -5.441406 1.890625 -5.734375 C 1.515625 -6.035156 1.210938 -6.394531 0.984375 -6.8125 C 0.753906 -7.238281 0.640625 -7.757812 0.640625 -8.375 C 0.640625 -8.988281 0.765625 -9.519531 1.015625 -9.96875 C 1.273438 -10.425781 1.609375 -10.796875 2.015625 -11.078125 C 2.421875 -11.367188 2.847656 -11.585938 3.296875 -11.734375 C 3.753906 -11.878906 4.1875 -11.953125 4.59375 -11.953125 C 5.300781 -11.953125 5.972656 -11.820312 6.609375 -11.5625 C 7.253906 -11.3125 7.742188 -10.875 8.078125 -10.25 L 8.25 -11.65625 L 11.125 -11.65625 L 11.125 -7.46875 L 8.109375 -7.46875 C 8.109375 -8.09375 7.898438 -8.570312 7.484375 -8.90625 C 7.066406 -9.238281 6.5625 -9.40625 5.96875 -9.40625 C 5.726562 -9.40625 5.472656 -9.328125 5.203125 -9.171875 C 4.941406 -9.023438 4.8125 -8.804688 4.8125 -8.515625 C 4.8125 -8.273438 4.929688 -8.066406 5.171875 -7.890625 C 5.410156 -7.722656 5.726562 -7.566406 6.125 -7.421875 C 6.519531 -7.273438 6.953125 -7.125 7.421875 -6.96875 C 7.890625 -6.820312 8.351562 -6.648438 8.8125 -6.453125 C 9.28125 -6.253906 9.710938 -6.015625 10.109375 -5.734375 C 10.503906 -5.453125 10.820312 -5.113281 11.0625 -4.71875 C 11.300781 -4.320312 11.421875 -3.84375 11.421875 -3.28125 C 11.421875 -2.632812 11.285156 -2.082031 11.015625 -1.625 C 10.753906 -1.175781 10.398438 -0.816406 9.953125 -0.546875 C 9.515625 -0.273438 9.035156 -0.078125 8.515625 0.046875 C 8.003906 0.179688 7.5 0.25 7 0.25 C 6.15625 0.25 5.441406 0.0859375 4.859375 -0.234375 C 4.285156 -0.554688 3.835938 -0.90625 3.515625 -1.28125 L 3.328125 0 Z M 0.421875 0 "/></g></g></g></svg>